# xmcd
#
# Track frame offsets:
#  150
#  16022
#  34943
#  50543
#  67211
#  86054
#  98298
#
# Disc length: 1527 seconds
#
# Revision: 0
# Processed by: cddbd v1.4PL0 Copyright (c) Steve Scherf et al.
# Submitted via: AltoMP3_Maker 3.0
#
DISCID=5005f507
DTITLE=Old 97's - Fight Songs
DYEAR=1900
DGENRE=
TTITLE0=Jagged
TTITLE1=Lonely Holiday
TTITLE2=Oppenheimer
TTITLE3=Indefinitely
TTITLE4=What We Talk About
TTITLE5=Crash on the Barrelhead
TTITLE6=Murder (Or a Heart Attack)
EXTD=
EXTT0=
EXTT1=
EXTT2=
EXTT3=
EXTT4=
EXTT5=
EXTT6=
PLAYORDER=
